# xmcd
#
# Track frame offsets:
#	182
#	16080
#	31715
#	47542
#	66630
#	82977
#	99590
#	115580
#	131797
#	147852
#	164617
#	185312
#
# Disc length: 2713 seconds
#
# Revision: 3
# Processed by: cddbd v1.4PL0 Copyright (c) Steve Scherf et al.
# Submitted via: CDmax 1.8
#
DISCID=980a970c
DTITLE=Various Artist - Soul Hits of the '70s: Didn't It Blow Your Mind Vol.1
DTITLE=9
DYEAR=1995
DGENRE=R&b
TTITLE0=The Bar-kays - Shake Your Rump to the Funk
TTITLE1=Enchantment - Gloria
TTITLE2=Joe Tex - Ain't Gonna Bump No More (With No Big Fat Woman)
TTITLE3=The Floaters - Float On
TTITLE4=The Brothers Johnson - Strawberry Letter 23
TTITLE5=L.T.D. - (Every Time I Turn around) Back in Love Again
TTITLE6=High Energy - You Can't Turn Me Off (In the Middle of Turning Me on)
TTITLE7=Con Funk Shun - Ffun
TTITLE8=Heatwave - Always and Forever
TTITLE9=Lou Rawls - Lady Love
TTITLE10=Raydio - Jack and Jill
TTITLE11=Natalie Cole - Our Love
EXTD=
EXTT0=
EXTT1=
EXTT2=
EXTT3=
EXTT4=
EXTT5=
EXTT6=
EXTT7=
EXTT8=
EXTT9=
EXTT10=
EXTT11=
PLAYORDER=
